<mxfile host="app.diagrams.net" modified="2023-11-29T10:01:48.989Z" agent="Mozilla/5.0 (Windows NT 6.1; Win64; x64) AppleWebKit/537.36 (KHTML, like Gecko) Chrome/109.0.0.0 Safari/537.36" etag="SUo4GzBFoP_oZA_b_Ook" version="22.1.4" type="google">
  <diagram name="Страница — 1" id="Puh0xUGVLMJPjq1wIbPb">
    <mxGraphModel grid="1" page="1" gridSize="10" guides="1" tooltips="1" connect="1" arrows="1" fold="1" pageScale="1" pageWidth="1169" pageHeight="827" math="0" shadow="0">
      <root>
        <mxCell id="0" />
        <mxCell id="1" parent="0" />
        <mxCell id="yoG9DTizntVdyrC91t-y-3" value="Получить копию фильма" style="rounded=0;whiteSpace=wrap;html=1;" vertex="1" parent="1">
          <mxGeometry x="480" y="240" width="120" height="80" as="geometry" />
        </mxCell>
        <mxCell id="yoG9DTizntVdyrC91t-y-7" value="1" style="text;html=1;strokeColor=none;fillColor=none;align=center;verticalAlign=middle;whiteSpace=wrap;rounded=0;" vertex="1" parent="1">
          <mxGeometry x="580" y="300" width="20" height="20" as="geometry" />
        </mxCell>
        <mxCell id="yoG9DTizntVdyrC91t-y-9" value="" style="endArrow=classic;html=1;rounded=0;entryX=-0.025;entryY=0.159;entryDx=0;entryDy=0;entryPerimeter=0;" edge="1" parent="1">
          <mxGeometry width="50" height="50" relative="1" as="geometry">
            <mxPoint x="83" y="260" as="sourcePoint" />
            <mxPoint x="479.99999999999955" y="260.81" as="targetPoint" />
            <Array as="points">
              <mxPoint x="123" y="260" />
            </Array>
          </mxGeometry>
        </mxCell>
        <mxCell id="yoG9DTizntVdyrC91t-y-10" value="Предложение дистрибьютора" style="text;html=1;strokeColor=none;fillColor=none;align=center;verticalAlign=middle;whiteSpace=wrap;rounded=0;" vertex="1" parent="1">
          <mxGeometry x="-20" y="247.5" width="100" height="30" as="geometry" />
        </mxCell>
        <mxCell id="yoG9DTizntVdyrC91t-y-19" value="" style="endArrow=classic;html=1;rounded=0;entryX=0.004;entryY=0.847;entryDx=0;entryDy=0;entryPerimeter=0;" edge="1" parent="1">
          <mxGeometry width="50" height="50" relative="1" as="geometry">
            <mxPoint x="179.52" y="302.24" as="sourcePoint" />
            <mxPoint x="480" y="300" as="targetPoint" />
          </mxGeometry>
        </mxCell>
        <mxCell id="yoG9DTizntVdyrC91t-y-21" value="Фильм, доступный к продаже" style="text;html=1;strokeColor=none;fillColor=none;align=center;verticalAlign=middle;whiteSpace=wrap;rounded=0;" vertex="1" parent="1">
          <mxGeometry x="-60" y="285" width="300" height="30" as="geometry" />
        </mxCell>
        <mxCell id="yoG9DTizntVdyrC91t-y-25" value="" style="endArrow=classic;html=1;rounded=0;edgeStyle=orthogonalEdgeStyle;entryX=0;entryY=0.5;entryDx=0;entryDy=0;" edge="1" parent="1">
          <mxGeometry width="50" height="50" relative="1" as="geometry">
            <mxPoint x="600" y="290" as="sourcePoint" />
            <mxPoint x="680" y="350" as="targetPoint" />
            <Array as="points">
              <mxPoint x="641" y="290" />
              <mxPoint x="641" y="350" />
            </Array>
          </mxGeometry>
        </mxCell>
        <mxCell id="yoG9DTizntVdyrC91t-y-26" value="" style="group" connectable="0" vertex="1" parent="1">
          <mxGeometry x="680" y="320" width="120" height="80" as="geometry" />
        </mxCell>
        <mxCell id="yoG9DTizntVdyrC91t-y-4" value="Подготовить фильм к показу" style="rounded=0;whiteSpace=wrap;html=1;" vertex="1" parent="yoG9DTizntVdyrC91t-y-26">
          <mxGeometry width="120" height="80" as="geometry" />
        </mxCell>
        <mxCell id="yoG9DTizntVdyrC91t-y-8" value="2" style="text;html=1;strokeColor=none;fillColor=none;align=center;verticalAlign=middle;whiteSpace=wrap;rounded=0;" vertex="1" parent="yoG9DTizntVdyrC91t-y-26">
          <mxGeometry x="100" y="60" width="20" height="20" as="geometry" />
        </mxCell>
        <mxCell id="yoG9DTizntVdyrC91t-y-28" value="" style="group" connectable="0" vertex="1" parent="1">
          <mxGeometry x="880" y="400" width="120" height="80" as="geometry" />
        </mxCell>
        <mxCell id="yoG9DTizntVdyrC91t-y-29" value="Продать билеты в кассе" style="rounded=0;whiteSpace=wrap;html=1;" vertex="1" parent="yoG9DTizntVdyrC91t-y-28">
          <mxGeometry width="120" height="80" as="geometry" />
        </mxCell>
        <mxCell id="yoG9DTizntVdyrC91t-y-30" value="3" style="text;html=1;strokeColor=none;fillColor=none;align=center;verticalAlign=middle;whiteSpace=wrap;rounded=0;" vertex="1" parent="yoG9DTizntVdyrC91t-y-28">
          <mxGeometry x="100" y="60" width="20" height="20" as="geometry" />
        </mxCell>
        <mxCell id="yoG9DTizntVdyrC91t-y-37" value="Прокатное удостоверение" style="text;html=1;strokeColor=none;fillColor=none;align=center;verticalAlign=middle;whiteSpace=wrap;rounded=0;" vertex="1" parent="1">
          <mxGeometry x="610" y="240" width="90" height="50" as="geometry" />
        </mxCell>
        <mxCell id="yoG9DTizntVdyrC91t-y-38" value="Пустить клиента в кинозал" style="rounded=0;whiteSpace=wrap;html=1;" vertex="1" parent="1">
          <mxGeometry x="1080" y="480" width="120" height="80" as="geometry" />
        </mxCell>
        <mxCell id="yoG9DTizntVdyrC91t-y-39" value="" style="endArrow=classic;html=1;rounded=0;exitX=1;exitY=0.25;exitDx=0;exitDy=0;edgeStyle=orthogonalEdgeStyle;entryX=-0.027;entryY=0.883;entryDx=0;entryDy=0;entryPerimeter=0;" edge="1" parent="1" source="yoG9DTizntVdyrC91t-y-8">
          <mxGeometry width="50" height="50" relative="1" as="geometry">
            <mxPoint x="803.24" y="385" as="sourcePoint" />
            <mxPoint x="1080.0000000000002" y="550.64" as="targetPoint" />
            <Array as="points">
              <mxPoint x="824" y="385" />
              <mxPoint x="824" y="551" />
            </Array>
          </mxGeometry>
        </mxCell>
        <mxCell id="yoG9DTizntVdyrC91t-y-40" value="" style="endArrow=classic;html=1;rounded=0;edgeStyle=orthogonalEdgeStyle;entryX=0;entryY=0.5;entryDx=0;entryDy=0;" edge="1" parent="1" target="yoG9DTizntVdyrC91t-y-29">
          <mxGeometry width="50" height="50" relative="1" as="geometry">
            <mxPoint x="800" y="350" as="sourcePoint" />
            <mxPoint x="850" y="440" as="targetPoint" />
            <Array as="points">
              <mxPoint x="850" y="350" />
              <mxPoint x="850" y="440" />
            </Array>
          </mxGeometry>
        </mxCell>
        <mxCell id="yoG9DTizntVdyrC91t-y-43" value="Результаты работы киномеханика и пиар-отдела" style="text;html=1;strokeColor=none;fillColor=none;align=center;verticalAlign=middle;whiteSpace=wrap;rounded=0;" vertex="1" parent="1">
          <mxGeometry x="810" y="285" width="90" height="50" as="geometry" />
        </mxCell>
        <mxCell id="yoG9DTizntVdyrC91t-y-44" value="" style="endArrow=classic;html=1;rounded=0;edgeStyle=orthogonalEdgeStyle;entryX=0;entryY=0.5;entryDx=0;entryDy=0;" edge="1" parent="1">
          <mxGeometry width="50" height="50" relative="1" as="geometry">
            <mxPoint x="1000" y="430" as="sourcePoint" />
            <mxPoint x="1080" y="520" as="targetPoint" />
            <Array as="points">
              <mxPoint x="1050" y="430" />
              <mxPoint x="1050" y="520" />
            </Array>
          </mxGeometry>
        </mxCell>
        <mxCell id="yoG9DTizntVdyrC91t-y-45" value="Билет" style="text;html=1;strokeColor=none;fillColor=none;align=center;verticalAlign=middle;whiteSpace=wrap;rounded=0;" vertex="1" parent="1">
          <mxGeometry x="1010" y="380" width="90" height="50" as="geometry" />
        </mxCell>
        <mxCell id="yoG9DTizntVdyrC91t-y-46" value="Фильм, готовый к прокату" style="text;html=1;strokeColor=none;fillColor=none;align=center;verticalAlign=middle;whiteSpace=wrap;rounded=0;" vertex="1" parent="1">
          <mxGeometry x="820" y="550" width="260" height="30" as="geometry" />
        </mxCell>
        <mxCell id="yoG9DTizntVdyrC91t-y-52" value="4" style="text;html=1;strokeColor=none;fillColor=none;align=center;verticalAlign=middle;whiteSpace=wrap;rounded=0;" vertex="1" parent="1">
          <mxGeometry x="1180" y="540" width="20" height="20" as="geometry" />
        </mxCell>
        <mxCell id="yoG9DTizntVdyrC91t-y-53" value="" style="endArrow=classic;html=1;rounded=0;" edge="1" parent="1">
          <mxGeometry width="50" height="50" relative="1" as="geometry">
            <mxPoint x="1200" y="500" as="sourcePoint" />
            <mxPoint x="1360" y="500" as="targetPoint" />
          </mxGeometry>
        </mxCell>
        <mxCell id="yoG9DTizntVdyrC91t-y-54" value="Успешный&amp;nbsp;&lt;br&gt;киносеанс" style="text;html=1;strokeColor=none;fillColor=none;align=center;verticalAlign=middle;whiteSpace=wrap;rounded=0;" vertex="1" parent="1">
          <mxGeometry x="1200" y="520" width="150" height="30" as="geometry" />
        </mxCell>
        <mxCell id="yoG9DTizntVdyrC91t-y-55" value="" style="endArrow=classic;html=1;rounded=0;entryX=0.171;entryY=0.003;entryDx=0;entryDy=0;entryPerimeter=0;" edge="1" parent="1">
          <mxGeometry width="50" height="50" relative="1" as="geometry">
            <mxPoint x="519.41" y="159.76" as="sourcePoint" />
            <mxPoint x="519.93" y="240" as="targetPoint" />
            <Array as="points">
              <mxPoint x="519.41" y="209.76" />
            </Array>
          </mxGeometry>
        </mxCell>
        <mxCell id="yoG9DTizntVdyrC91t-y-56" value="Правила оформления сделки" style="text;html=1;strokeColor=none;fillColor=none;align=center;verticalAlign=middle;whiteSpace=wrap;rounded=0;" vertex="1" parent="1">
          <mxGeometry x="454" y="120" width="100" height="30" as="geometry" />
        </mxCell>
        <mxCell id="yoG9DTizntVdyrC91t-y-57" value="" style="endArrow=classic;html=1;rounded=0;" edge="1" parent="1">
          <mxGeometry width="50" height="50" relative="1" as="geometry">
            <mxPoint x="1200" y="550" as="sourcePoint" />
            <mxPoint x="1360" y="550" as="targetPoint" />
          </mxGeometry>
        </mxCell>
        <mxCell id="yoG9DTizntVdyrC91t-y-58" value="Билет с оторванным контролем" style="text;html=1;strokeColor=none;fillColor=none;align=center;verticalAlign=middle;whiteSpace=wrap;rounded=0;" vertex="1" parent="1">
          <mxGeometry x="1200" y="470" width="150" height="30" as="geometry" />
        </mxCell>
        <mxCell id="o6OTGpshtEeQCwX5j1a3-3" style="edgeStyle=orthogonalEdgeStyle;rounded=0;orthogonalLoop=1;jettySize=auto;html=1;" edge="1" parent="1" source="yoG9DTizntVdyrC91t-y-60">
          <mxGeometry relative="1" as="geometry">
            <mxPoint x="560" y="320" as="targetPoint" />
          </mxGeometry>
        </mxCell>
        <mxCell id="yoG9DTizntVdyrC91t-y-60" value="Персонал кинотеатра" style="text;html=1;strokeColor=none;fillColor=none;align=center;verticalAlign=middle;whiteSpace=wrap;rounded=0;" vertex="1" parent="1">
          <mxGeometry x="60" y="690" width="60" height="30" as="geometry" />
        </mxCell>
        <mxCell id="yoG9DTizntVdyrC91t-y-64" value="&lt;br&gt;&lt;span style=&quot;color: rgb(0, 0, 0); font-family: Helvetica; font-size: 12px; font-style: normal; font-variant-ligatures: normal; font-variant-caps: normal; font-weight: 400; letter-spacing: normal; orphans: 2; text-align: center; text-indent: 0px; text-transform: none; widows: 2; word-spacing: 0px; -webkit-text-stroke-width: 0px; background-color: rgb(251, 251, 251); text-decoration-thickness: initial; text-decoration-style: initial; text-decoration-color: initial; float: none; display: inline !important;&quot;&gt;Приложение для составления заказов и продажи билетов&lt;/span&gt;" style="text;html=1;strokeColor=none;fillColor=none;align=center;verticalAlign=middle;whiteSpace=wrap;rounded=0;" vertex="1" parent="1">
          <mxGeometry x="140" y="700" width="70" height="45" as="geometry" />
        </mxCell>
        <mxCell id="yoG9DTizntVdyrC91t-y-65" value="" style="endArrow=classic;html=1;rounded=0;entryX=0.171;entryY=0.003;entryDx=0;entryDy=0;entryPerimeter=0;" edge="1" parent="1">
          <mxGeometry width="50" height="50" relative="1" as="geometry">
            <mxPoint x="584" y="159.76" as="sourcePoint" />
            <mxPoint x="584.52" y="240" as="targetPoint" />
            <Array as="points">
              <mxPoint x="584" y="209.76" />
            </Array>
          </mxGeometry>
        </mxCell>
        <mxCell id="yoG9DTizntVdyrC91t-y-66" value="Торговый кодекс" style="text;html=1;strokeColor=none;fillColor=none;align=center;verticalAlign=middle;whiteSpace=wrap;rounded=0;" vertex="1" parent="1">
          <mxGeometry x="554" y="120" width="60" height="30" as="geometry" />
        </mxCell>
        <mxCell id="yoG9DTizntVdyrC91t-y-68" value="" style="endArrow=classic;html=1;rounded=0;edgeStyle=orthogonalEdgeStyle;" edge="1" parent="1">
          <mxGeometry width="50" height="50" relative="1" as="geometry">
            <mxPoint x="310" y="480" as="sourcePoint" />
            <mxPoint x="720" y="400" as="targetPoint" />
            <Array as="points">
              <mxPoint x="720" y="480" />
            </Array>
          </mxGeometry>
        </mxCell>
        <mxCell id="yoG9DTizntVdyrC91t-y-69" value="Киномеханик" style="text;html=1;strokeColor=none;fillColor=none;align=center;verticalAlign=middle;whiteSpace=wrap;rounded=0;" vertex="1" parent="1">
          <mxGeometry x="210" y="460" width="120" height="30" as="geometry" />
        </mxCell>
        <mxCell id="yoG9DTizntVdyrC91t-y-70" value="" style="endArrow=classic;html=1;rounded=0;edgeStyle=orthogonalEdgeStyle;" edge="1" parent="1">
          <mxGeometry width="50" height="50" relative="1" as="geometry">
            <mxPoint x="510" y="400" as="sourcePoint" />
            <mxPoint x="510" y="320" as="targetPoint" />
          </mxGeometry>
        </mxCell>
        <mxCell id="yoG9DTizntVdyrC91t-y-71" value="Бюджет на сезон" style="text;html=1;strokeColor=none;fillColor=none;align=center;verticalAlign=middle;whiteSpace=wrap;rounded=0;" vertex="1" parent="1">
          <mxGeometry x="480" y="400" width="60" height="30" as="geometry" />
        </mxCell>
        <mxCell id="yoG9DTizntVdyrC91t-y-72" value="" style="endArrow=classic;html=1;rounded=0;edgeStyle=orthogonalEdgeStyle;" edge="1" parent="1">
          <mxGeometry width="50" height="50" relative="1" as="geometry">
            <mxPoint x="200" y="740" as="sourcePoint" />
            <mxPoint x="960" y="480" as="targetPoint" />
            <Array as="points">
              <mxPoint x="210" y="740" />
              <mxPoint x="960" y="740" />
            </Array>
          </mxGeometry>
        </mxCell>
        <mxCell id="yoG9DTizntVdyrC91t-y-75" value="" style="endArrow=classic;html=1;rounded=0;edgeStyle=orthogonalEdgeStyle;" edge="1" parent="1">
          <mxGeometry width="50" height="50" relative="1" as="geometry">
            <mxPoint x="80" y="680" as="sourcePoint" />
            <mxPoint x="900" y="470" as="targetPoint" />
            <Array as="points">
              <mxPoint x="100" y="631" />
              <mxPoint x="900" y="631" />
              <mxPoint x="900" y="550" />
            </Array>
          </mxGeometry>
        </mxCell>
        <mxCell id="yoG9DTizntVdyrC91t-y-81" value="" style="endArrow=classic;html=1;rounded=0;entryX=0.833;entryY=0;entryDx=0;entryDy=0;entryPerimeter=0;" edge="1" parent="1">
          <mxGeometry width="50" height="50" relative="1" as="geometry">
            <mxPoint x="739.84" y="200" as="sourcePoint" />
            <mxPoint x="739.8000000000001" y="320" as="targetPoint" />
            <Array as="points">
              <mxPoint x="739.84" y="260" />
            </Array>
          </mxGeometry>
        </mxCell>
        <mxCell id="yoG9DTizntVdyrC91t-y-82" value="Правила проката" style="text;html=1;strokeColor=none;fillColor=none;align=center;verticalAlign=middle;whiteSpace=wrap;rounded=0;" vertex="1" parent="1">
          <mxGeometry x="710" y="160" width="60" height="30" as="geometry" />
        </mxCell>
        <mxCell id="yoG9DTizntVdyrC91t-y-83" value="" style="endArrow=classic;html=1;rounded=0;entryX=0.833;entryY=0;entryDx=0;entryDy=0;entryPerimeter=0;" edge="1" parent="1">
          <mxGeometry width="50" height="50" relative="1" as="geometry">
            <mxPoint x="910.04" y="280" as="sourcePoint" />
            <mxPoint x="910" y="400" as="targetPoint" />
            <Array as="points">
              <mxPoint x="910.04" y="340" />
            </Array>
          </mxGeometry>
        </mxCell>
        <mxCell id="yoG9DTizntVdyrC91t-y-84" value="" style="endArrow=classic;html=1;rounded=0;entryX=0.833;entryY=0;entryDx=0;entryDy=0;entryPerimeter=0;" edge="1" parent="1">
          <mxGeometry width="50" height="50" relative="1" as="geometry">
            <mxPoint x="970.04" y="280" as="sourcePoint" />
            <mxPoint x="970" y="400" as="targetPoint" />
            <Array as="points">
              <mxPoint x="970.04" y="340" />
            </Array>
          </mxGeometry>
        </mxCell>
        <mxCell id="yoG9DTizntVdyrC91t-y-85" value="Правила&lt;br&gt;продажи" style="text;html=1;strokeColor=none;fillColor=none;align=center;verticalAlign=middle;whiteSpace=wrap;rounded=0;" vertex="1" parent="1">
          <mxGeometry x="860" y="227.5" width="90" height="50" as="geometry" />
        </mxCell>
        <mxCell id="yoG9DTizntVdyrC91t-y-86" value="Стоимость билета" style="text;html=1;strokeColor=none;fillColor=none;align=center;verticalAlign=middle;whiteSpace=wrap;rounded=0;" vertex="1" parent="1">
          <mxGeometry x="930" y="227.5" width="90" height="50" as="geometry" />
        </mxCell>
        <mxCell id="Jjnta6AwabvWk3E8ou8S-1" value="" style="endArrow=none;html=1;rounded=0;" edge="1" parent="1">
          <mxGeometry width="50" height="50" relative="1" as="geometry">
            <mxPoint x="900" y="630" as="sourcePoint" />
            <mxPoint x="1140" y="630" as="targetPoint" />
          </mxGeometry>
        </mxCell>
        <mxCell id="Jjnta6AwabvWk3E8ou8S-2" value="" style="endArrow=classic;html=1;rounded=0;entryX=0.5;entryY=1;entryDx=0;entryDy=0;" edge="1" parent="1" target="yoG9DTizntVdyrC91t-y-38">
          <mxGeometry width="50" height="50" relative="1" as="geometry">
            <mxPoint x="1140" y="630" as="sourcePoint" />
            <mxPoint x="820" y="430" as="targetPoint" />
          </mxGeometry>
        </mxCell>
        <mxCell id="Jjnta6AwabvWk3E8ou8S-4" value="Проверка возраста на входе" style="text;html=1;strokeColor=none;fillColor=none;align=center;verticalAlign=middle;whiteSpace=wrap;rounded=0;" vertex="1" parent="1">
          <mxGeometry x="1110" y="370" width="60" height="30" as="geometry" />
        </mxCell>
        <mxCell id="Jjnta6AwabvWk3E8ou8S-5" value="" style="endArrow=classic;html=1;rounded=0;entryX=0.5;entryY=0;entryDx=0;entryDy=0;exitX=0.483;exitY=1.233;exitDx=0;exitDy=0;exitPerimeter=0;" edge="1" parent="1" source="Jjnta6AwabvWk3E8ou8S-4" target="yoG9DTizntVdyrC91t-y-38">
          <mxGeometry width="50" height="50" relative="1" as="geometry">
            <mxPoint x="770" y="480" as="sourcePoint" />
            <mxPoint x="820" y="430" as="targetPoint" />
          </mxGeometry>
        </mxCell>
        <mxCell id="o6OTGpshtEeQCwX5j1a3-5" value="" style="group" connectable="0" vertex="1" parent="1">
          <mxGeometry x="620" y="-120" width="120" height="80" as="geometry" />
        </mxCell>
        <mxCell id="o6OTGpshtEeQCwX5j1a3-6" value="Управлять кинотеатром" style="rounded=0;whiteSpace=wrap;html=1;" vertex="1" parent="o6OTGpshtEeQCwX5j1a3-5">
          <mxGeometry width="120" height="80" as="geometry" />
        </mxCell>
        <mxCell id="o6OTGpshtEeQCwX5j1a3-8" value="" style="endArrow=classic;html=1;rounded=0;exitX=1;exitY=0.5;exitDx=0;exitDy=0;" edge="1" parent="1" source="o6OTGpshtEeQCwX5j1a3-6">
          <mxGeometry width="50" height="50" relative="1" as="geometry">
            <mxPoint x="660" y="-40" as="sourcePoint" />
            <mxPoint x="480" y="250" as="targetPoint" />
            <Array as="points">
              <mxPoint x="1130" y="-80" />
              <mxPoint x="1130" y="-560" />
              <mxPoint x="150" y="-560" />
              <mxPoint x="150" y="-90" />
              <mxPoint x="150" y="250" />
            </Array>
          </mxGeometry>
        </mxCell>
        <mxCell id="o6OTGpshtEeQCwX5j1a3-9" value="" style="endArrow=classic;html=1;rounded=0;entryX=-0.006;entryY=0.601;entryDx=0;entryDy=0;entryPerimeter=0;exitX=1;exitY=0.25;exitDx=0;exitDy=0;" edge="1" parent="1" source="o6OTGpshtEeQCwX5j1a3-6" target="yoG9DTizntVdyrC91t-y-4">
          <mxGeometry width="50" height="50" relative="1" as="geometry">
            <mxPoint x="702" y="-40" as="sourcePoint" />
            <mxPoint x="460" y="200" as="targetPoint" />
            <Array as="points">
              <mxPoint x="940" y="-100" />
              <mxPoint x="940" y="-330" />
              <mxPoint x="380" y="-330" />
              <mxPoint x="380" y="-10" />
              <mxPoint x="380" y="370" />
            </Array>
          </mxGeometry>
        </mxCell>
        <mxCell id="o6OTGpshtEeQCwX5j1a3-11" value="" style="endArrow=classic;html=1;rounded=0;exitX=1.004;exitY=0.66;exitDx=0;exitDy=0;entryX=-0.055;entryY=0.733;entryDx=0;entryDy=0;entryPerimeter=0;exitPerimeter=0;" edge="1" parent="1" source="o6OTGpshtEeQCwX5j1a3-6" target="yoG9DTizntVdyrC91t-y-38">
          <mxGeometry width="50" height="50" relative="1" as="geometry">
            <mxPoint x="410" y="130" as="sourcePoint" />
            <mxPoint x="460" y="80" as="targetPoint" />
            <Array as="points">
              <mxPoint x="1030" y="-67" />
              <mxPoint x="1030" y="-510" />
              <mxPoint x="190" y="-510" />
              <mxPoint x="190" y="-70" />
              <mxPoint x="190" y="530" />
            </Array>
          </mxGeometry>
        </mxCell>
        <mxCell id="o6OTGpshtEeQCwX5j1a3-12" value="Правила оформления отчетнсти" style="text;html=1;strokeColor=none;fillColor=none;align=center;verticalAlign=middle;whiteSpace=wrap;rounded=0;" vertex="1" parent="1">
          <mxGeometry x="630" y="-320" width="100" height="30" as="geometry" />
        </mxCell>
        <mxCell id="o6OTGpshtEeQCwX5j1a3-13" value="" style="endArrow=classic;html=1;rounded=0;exitX=0.5;exitY=1;exitDx=0;exitDy=0;" edge="1" parent="1" source="o6OTGpshtEeQCwX5j1a3-12">
          <mxGeometry width="50" height="50" relative="1" as="geometry">
            <mxPoint x="410" y="10" as="sourcePoint" />
            <mxPoint x="680" y="-120" as="targetPoint" />
          </mxGeometry>
        </mxCell>
        <mxCell id="o6OTGpshtEeQCwX5j1a3-14" value="Стандарты кинотеатра" style="text;html=1;strokeColor=none;fillColor=none;align=center;verticalAlign=middle;whiteSpace=wrap;rounded=0;" vertex="1" parent="1">
          <mxGeometry x="220" y="-550" width="100" height="30" as="geometry" />
        </mxCell>
        <mxCell id="o6OTGpshtEeQCwX5j1a3-15" value="Технические требования к фильму" style="text;html=1;strokeColor=none;fillColor=none;align=center;verticalAlign=middle;whiteSpace=wrap;rounded=0;" vertex="1" parent="1">
          <mxGeometry x="830" y="-370" width="100" height="30" as="geometry" />
        </mxCell>
        <mxCell id="o6OTGpshtEeQCwX5j1a3-16" value="Ценовая политика" style="text;html=1;strokeColor=none;fillColor=none;align=center;verticalAlign=middle;whiteSpace=wrap;rounded=0;" vertex="1" parent="1">
          <mxGeometry x="280" y="-40" width="100" height="30" as="geometry" />
        </mxCell>
        <mxCell id="o6OTGpshtEeQCwX5j1a3-17" value="Стандарты сервиса" style="text;html=1;strokeColor=none;fillColor=none;align=center;verticalAlign=middle;whiteSpace=wrap;rounded=0;" vertex="1" parent="1">
          <mxGeometry x="430" y="500" width="100" height="30" as="geometry" />
        </mxCell>
        <mxCell id="o6OTGpshtEeQCwX5j1a3-18" value="" style="endArrow=classic;html=1;rounded=0;exitX=1.033;exitY=0.645;exitDx=0;exitDy=0;exitPerimeter=0;entryX=0;entryY=0.5;entryDx=0;entryDy=0;" edge="1" parent="1" source="yoG9DTizntVdyrC91t-y-29" target="o6OTGpshtEeQCwX5j1a3-6">
          <mxGeometry width="50" height="50" relative="1" as="geometry">
            <mxPoint x="410" y="250" as="sourcePoint" />
            <mxPoint x="460" y="200" as="targetPoint" />
            <Array as="points">
              <mxPoint x="1100" y="450" />
              <mxPoint x="1100" y="-470" />
              <mxPoint x="440" y="-470" />
              <mxPoint x="440" y="-100" />
              <mxPoint x="440" y="-80" />
              <mxPoint x="540" y="-80" />
            </Array>
          </mxGeometry>
        </mxCell>
        <mxCell id="o6OTGpshtEeQCwX5j1a3-19" value="Бухгалтерия" style="text;html=1;strokeColor=none;fillColor=none;align=center;verticalAlign=middle;whiteSpace=wrap;rounded=0;" vertex="1" parent="1">
          <mxGeometry x="590" y="40" width="100" height="30" as="geometry" />
        </mxCell>
        <mxCell id="o6OTGpshtEeQCwX5j1a3-20" value="ПК" style="text;html=1;strokeColor=none;fillColor=none;align=center;verticalAlign=middle;whiteSpace=wrap;rounded=0;" vertex="1" parent="1">
          <mxGeometry x="690" y="40" width="100" height="30" as="geometry" />
        </mxCell>
        <mxCell id="o6OTGpshtEeQCwX5j1a3-21" value="" style="endArrow=classic;html=1;rounded=0;entryX=0.25;entryY=1;entryDx=0;entryDy=0;exitX=0.599;exitY=-0.006;exitDx=0;exitDy=0;exitPerimeter=0;" edge="1" parent="1" source="o6OTGpshtEeQCwX5j1a3-19" target="o6OTGpshtEeQCwX5j1a3-6">
          <mxGeometry width="50" height="50" relative="1" as="geometry">
            <mxPoint x="410" y="130" as="sourcePoint" />
            <mxPoint x="460" y="80" as="targetPoint" />
          </mxGeometry>
        </mxCell>
        <mxCell id="o6OTGpshtEeQCwX5j1a3-22" value="" style="endArrow=classic;html=1;rounded=0;entryX=0.917;entryY=1;entryDx=0;entryDy=0;entryPerimeter=0;" edge="1" parent="1" target="o6OTGpshtEeQCwX5j1a3-6">
          <mxGeometry width="50" height="50" relative="1" as="geometry">
            <mxPoint x="730" y="30" as="sourcePoint" />
            <mxPoint x="460" y="80" as="targetPoint" />
          </mxGeometry>
        </mxCell>
        <mxCell id="o6OTGpshtEeQCwX5j1a3-23" value="Данные о продажах" style="text;html=1;align=center;verticalAlign=middle;resizable=0;points=[];autosize=1;strokeColor=none;fillColor=none;" vertex="1" parent="1">
          <mxGeometry x="439" y="-510" width="130" height="30" as="geometry" />
        </mxCell>
        <mxCell id="o6OTGpshtEeQCwX5j1a3-24" value="" style="endArrow=classic;html=1;rounded=0;entryX=0;entryY=0.75;entryDx=0;entryDy=0;exitX=1;exitY=0.75;exitDx=0;exitDy=0;" edge="1" parent="1">
          <mxGeometry width="50" height="50" relative="1" as="geometry">
            <mxPoint x="740" y="-50.00000000000023" as="sourcePoint" />
            <mxPoint x="880" y="470" as="targetPoint" />
            <Array as="points">
              <mxPoint x="1000" y="-50" />
              <mxPoint x="1000" y="-400" />
              <mxPoint x="400" y="-400" />
              <mxPoint x="400" y="470" />
            </Array>
          </mxGeometry>
        </mxCell>
      </root>
    </mxGraphModel>
  </diagram>
</mxfile>
